<svg width="24" height="24" viewBox="0 0 24 24" fill="none" xmlns="http://www.w3.org/2000/svg">
<path fill-rule="evenodd" clip-rule="evenodd" d="M10.4081 11.1307C12.7325 11.1307 14.6168 9.24643 14.6168 6.92205C14.6168 4.59766 12.7325 2.71338 10.4081 2.71338C8.08371 2.71338 6.19942 4.59766 6.19942 6.92205C6.19942 9.24643 8.08371 11.1307 10.4081 11.1307ZM10.4081 9.44727C11.8027 9.44727 12.9333 8.31669 12.9333 6.92205C12.9333 5.5274 11.8027 4.39682 10.4081 4.39682C9.01345 4.39682 7.88286 5.5274 7.88286 6.92205C7.88286 8.31669 9.01345 9.44727 10.4081 9.44727Z" fill="#6E7680"/>
<path d="M10.1317 14.5714C10.1395 14.2793 10.1576 13.9797 10.1866 13.6728C10.2153 13.3687 10.317 13.1044 10.4671 12.8849C10.4474 12.8848 10.4278 12.8847 10.4081 12.8847C6.19947 12.8847 3.04297 14.8737 3.04297 17.3272C3.04297 18.554 4.13038 19.5484 5.1473 19.5484H11.2324C10.9527 19.0359 10.717 18.4751 10.5362 17.865H5.15293C5.14799 17.8642 5.12711 17.8601 5.09159 17.8438C5.03811 17.8193 4.9721 17.7759 4.90861 17.7119C4.7758 17.5781 4.72641 17.434 4.72641 17.3272C4.72641 16.8919 5.00619 16.2452 6.02529 15.6222C6.97617 15.041 8.39831 14.6128 10.1317 14.5714Z" fill="#6E7680"/>
<path fill-rule="evenodd" clip-rule="evenodd" d="M11.6138 13.5184C13.8662 13.824 16.436 10.8551 16.4404 10.8496C16.4447 10.8551 19.0146 13.824 21.267 13.5184C21.9031 18.9542 18.7666 21.405 16.5188 22.051C16.467 22.0659 16.4138 22.0659 16.362 22.051C14.1141 21.405 10.9776 18.9542 11.6138 13.5184Z" fill="#4F9AF7"/>
</svg>
